<?xml version="1.0" encoding="UTF-8"?>
<svg xmlns="http://www.w3.org/2000/svg" xmlns:xlink="http://www.w3.org/1999/xlink" width="854" height="480" viewBox="0 0 854 480">
<defs>
<g>
<g id="glyph-0-0">
<path d="M 5.515625 0.140625 C 7.40625 0.140625 8.859375 -1.359375 8.859375 -4.078125 C 8.859375 -6.875 7.359375 -8.296875 5.53125 -8.296875 C 4.140625 -8.296875 3.5 -7.46875 3.203125 -6.8125 L 3.140625 -6.8125 L 3.140625 -10.90625 L 0.9375 -10.90625 L 0.9375 0 L 3.09375 0 L 3.09375 -1.3125 L 3.203125 -1.3125 C 3.515625 -0.65625 4.1875 0.140625 5.515625 0.140625 Z M 4.84375 -1.625 C 3.734375 -1.625 3.078125 -2.609375 3.078125 -4.09375 C 3.078125 -5.578125 3.71875 -6.53125 4.84375 -6.53125 C 6 -6.53125 6.609375 -5.515625 6.609375 -4.09375 C 6.609375 -2.640625 5.984375 -1.625 4.84375 -1.625 Z "/>
</g>
<g id="glyph-0-1">
<path d="M 0.875 2.90625 C 1.1875 3.03125 1.734375 3.125 2.3125 3.125 C 3.953125 3.125 4.8125 2.296875 5.3125 0.96875 L 8.796875 -8.1875 L 6.484375 -8.1875 L 5.046875 -3.9375 C 4.8125 -3.234375 4.625 -2.53125 4.453125 -1.796875 C 4.3125 -2.53125 4.15625 -3.234375 3.9375 -3.9375 L 2.5625 -8.1875 L 0.234375 -8.1875 L 3.296875 0.015625 L 3.25 0.46875 C 3.15625 1.28125 2.546875 1.546875 1.65625 1.3125 L 1.390625 1.25 Z "/>
</g>
<g id="glyph-0-2">
</g>
<g id="glyph-0-3">
<path d="M 0.359375 0 L 2.828125 0 L 3.640625 -2.53125 L 7.515625 -2.53125 L 8.359375 0 L 10.84375 0 L 7.015625 -10.90625 L 4.09375 -10.90625 Z M 4.203125 -4.28125 L 4.515625 -5.265625 C 4.84375 -6.359375 5.15625 -7.65625 5.53125 -9.15625 C 5.90625 -7.671875 6.25 -6.390625 6.609375 -5.265625 L 6.9375 -4.28125 Z "/>
</g>
<g id="glyph-0-4">
<path d="M 3.140625 -4.734375 C 3.140625 -5.828125 3.78125 -6.453125 4.71875 -6.453125 C 5.640625 -6.453125 6.203125 -5.84375 6.203125 -4.828125 L 6.203125 0 L 8.40625 0 L 8.40625 -5.203125 C 8.40625 -7.125 7.28125 -8.296875 5.59375 -8.296875 C 4.375 -8.296875 3.5625 -7.6875 3.09375 -6.625 L 3.09375 -10.90625 L 0.9375 -10.90625 L 0.9375 0 L 3.140625 0 Z "/>
</g>
<g id="glyph-0-5">
<path d="M 0.9375 0 L 3.140625 0 L 3.140625 -8.1875 L 0.9375 -8.1875 Z M 2.03125 -9.265625 C 2.703125 -9.265625 3.25 -9.75 3.25 -10.390625 C 3.25 -11.015625 2.703125 -11.515625 2.03125 -11.515625 C 1.375 -11.515625 0.828125 -11.015625 0.828125 -10.390625 C 0.828125 -9.75 1.375 -9.265625 2.03125 -9.265625 Z "/>
</g>
<g id="glyph-0-6">
<path d="M 0.9375 -8.1875 L 0.9375 0.390625 C 0.9375 1.015625 0.65625 1.328125 -0.078125 1.328125 L -0.359375 1.328125 L -0.359375 3.0625 L 0.078125 3.0625 C 1.984375 3.0625 3.140625 2.296875 3.140625 0.421875 L 3.140625 -8.1875 Z M 2.03125 -9.265625 C 2.703125 -9.265625 3.25 -9.75 3.25 -10.390625 C 3.25 -11.015625 2.703125 -11.515625 2.03125 -11.515625 C 1.375 -11.515625 0.828125 -11.015625 0.828125 -10.390625 C 0.828125 -9.75 1.375 -9.265625 2.03125 -9.265625 Z "/>
</g>
<g id="glyph-0-7">
<path d="M 4.640625 0.15625 C 6.546875 0.15625 7.84375 -0.71875 8.25 -2.09375 L 6.25 -2.46875 C 6.015625 -1.828125 5.4375 -1.5 4.671875 -1.5 C 3.5625 -1.5 2.8125 -2.1875 2.765625 -3.515625 L 8.375 -3.515625 L 8.375 -4.140625 C 8.375 -6.9375 6.671875 -8.296875 4.53125 -8.296875 C 2.125 -8.296875 0.59375 -6.578125 0.59375 -4.046875 C 0.59375 -1.46875 2.125 0.15625 4.640625 0.15625 Z M 2.78125 -4.90625 C 2.875 -5.90625 3.5 -6.640625 4.546875 -6.640625 C 5.5625 -6.640625 6.140625 -5.96875 6.25 -4.90625 Z "/>
</g>
<g id="glyph-0-8">
<path d="M 5 -8.1875 L 3.46875 -8.1875 L 3.46875 -10.140625 L 1.28125 -10.140625 L 1.28125 -8.1875 L 0.140625 -8.1875 L 0.140625 -6.515625 L 1.28125 -6.515625 L 1.28125 -2.203125 C 1.28125 -0.703125 2.171875 0.125 3.8125 0.125 C 4.25 0.125 4.734375 0.0625 5.234375 -0.078125 L 4.921875 -1.734375 C 4.75 -1.6875 4.390625 -1.640625 4.21875 -1.640625 C 3.6875 -1.640625 3.46875 -1.875 3.46875 -2.390625 L 3.46875 -6.515625 L 5 -6.515625 Z "/>
</g>
<g id="glyph-0-9">
<path d="M 0.984375 0 L 3.21875 0 L 3.21875 -3.125 L 4.671875 -4.71875 L 7.765625 0 L 10.421875 0 L 6.21875 -6.1875 L 10.296875 -10.90625 L 7.5625 -10.90625 L 4.890625 -7.78125 C 4.171875 -6.90625 3.65625 -6.21875 3.1875 -5.453125 L 3.21875 -7.9375 L 3.21875 -10.90625 L 0.984375 -10.90625 Z "/>
</g>
<g id="glyph-0-10">
<path d="M 3.21875 0.15625 C 4.4375 0.15625 5.21875 -0.375 5.625 -1.140625 L 5.6875 -1.140625 L 5.6875 0 L 7.765625 0 L 7.765625 -5.515625 C 7.765625 -7.5 6.0625 -8.296875 4.296875 -8.296875 C 2.46875 -8.296875 1.15625 -7.484375 0.734375 -6.0625 L 2.75 -5.71875 C 2.921875 -6.25 3.4375 -6.671875 4.296875 -6.671875 C 5.109375 -6.671875 5.578125 -6.265625 5.578125 -5.578125 L 5.578125 -5.53125 C 5.578125 -5 5 -4.9375 3.59375 -4.8125 C 1.984375 -4.65625 0.5 -4.125 0.5 -2.296875 C 0.5 -0.671875 1.65625 0.15625 3.21875 0.15625 Z M 3.84375 -1.390625 C 3.125 -1.390625 2.609375 -1.71875 2.609375 -2.34375 C 2.609375 -3.015625 3.15625 -3.328125 3.96875 -3.4375 C 4.453125 -3.515625 5.3125 -3.625 5.59375 -3.8125 L 5.59375 -2.9375 C 5.59375 -2.0625 4.875 -1.390625 3.84375 -1.390625 Z "/>
</g>
<g id="glyph-0-11">
<path d="M 0.9375 0 L 3.140625 0 L 3.140625 -4.65625 C 3.140625 -5.671875 3.875 -6.375 4.890625 -6.375 C 5.203125 -6.375 5.640625 -6.328125 5.84375 -6.265625 L 5.84375 -8.21875 C 5.640625 -8.265625 5.359375 -8.296875 5.125 -8.296875 C 4.203125 -8.296875 3.453125 -7.765625 3.15625 -6.765625 L 3.0625 -6.765625 L 3.0625 -8.1875 L 0.9375 -8.1875 Z "/>
</g>
<g id="glyph-0-12">
<path d="M 3.25 0 L 5.75 0 L 8.765625 -8.1875 L 6.453125 -8.1875 L 5.09375 -3.9375 C 4.875 -3.203125 4.6875 -2.46875 4.53125 -1.703125 C 4.34375 -2.46875 4.171875 -3.203125 3.9375 -3.9375 L 2.5625 -8.1875 L 0.234375 -8.1875 Z "/>
</g>
</g>
</defs>
<g fill="rgb(97.254902%, 98.039216%, 98.823529%)" fill-opacity="1">
<use xlink:href="#glyph-0-0" x="30" y="34.53125"/>
<use xlink:href="#glyph-0-1" x="39.185547" y="34.53125"/>
<use xlink:href="#glyph-0-2" x="48.216797" y="34.53125"/>
<use xlink:href="#glyph-0-3" x="51.769531" y="34.53125"/>
<use xlink:href="#glyph-0-0" x="62.96875" y="34.53125"/>
<use xlink:href="#glyph-0-4" x="72.424805" y="34.53125"/>
<use xlink:href="#glyph-0-5" x="81.763672" y="34.53125"/>
<use xlink:href="#glyph-0-6" x="85.829102" y="34.53125"/>
<use xlink:href="#glyph-0-7" x="89.894531" y="34.53125"/>
<use xlink:href="#glyph-0-7" x="98.830078" y="34.53125"/>
<use xlink:href="#glyph-0-8" x="107.765625" y="34.53125"/>
<use xlink:href="#glyph-0-2" x="113.258789" y="34.53125"/>
<use xlink:href="#glyph-0-9" x="116.811523" y="34.53125"/>
<use xlink:href="#glyph-0-10" x="127.600586" y="34.53125"/>
<use xlink:href="#glyph-0-11" x="136.30957" y="34.53125"/>
<use xlink:href="#glyph-0-12" x="142.652344" y="34.53125"/>
<use xlink:href="#glyph-0-7" x="151.375977" y="34.53125"/>
</g>
</svg>
