<?xml version="1.0" encoding="UTF-8"?>
<svg xmlns="http://www.w3.org/2000/svg" xmlns:xlink="http://www.w3.org/1999/xlink" width="854" height="480" viewBox="0 0 854 480">
<defs>
<g>
<g id="glyph-0-0">
<path d="M 0.25 -4.03125 L 1.734375 -4.03125 L 1.734375 0 L 2.734375 0 L 2.734375 -4.03125 L 4.203125 -4.03125 L 4.203125 -4.859375 L 0.25 -4.859375 Z "/>
</g>
<g id="glyph-0-1">
<path d="M 2.578125 0.0625 C 3.859375 0.0625 4.828125 -0.84375 4.828125 -2.421875 C 4.828125 -4.015625 3.859375 -4.921875 2.578125 -4.921875 C 1.28125 -4.921875 0.3125 -4.015625 0.3125 -2.421875 C 0.3125 -0.84375 1.28125 0.0625 2.578125 0.0625 Z M 2.578125 -0.8125 C 1.8125 -0.8125 1.3125 -1.390625 1.3125 -2.421875 C 1.3125 -3.46875 1.8125 -4.03125 2.578125 -4.03125 C 3.328125 -4.03125 3.828125 -3.46875 3.828125 -2.421875 C 3.828125 -1.390625 3.328125 -0.8125 2.578125 -0.8125 Z "/>
</g>
<g id="glyph-0-2">
<path d="M 2.140625 0 C 3.625 0 4.515625 -0.90625 4.515625 -2.4375 C 4.515625 -3.9375 3.625 -4.859375 2.15625 -4.859375 L 0.4375 -4.859375 L 0.4375 0 Z M 1.4375 -0.859375 L 1.4375 -4 L 2.109375 -4 C 3.03125 -4 3.515625 -3.515625 3.515625 -2.4375 C 3.515625 -1.34375 3.03125 -0.859375 2.09375 -0.859375 Z "/>
</g>
<g id="glyph-0-3">
<path d="M 0.15625 0 L 1.25 0 L 1.625 -1.125 L 3.34375 -1.125 L 3.71875 0 L 4.828125 0 L 3.125 -4.859375 L 1.8125 -4.859375 Z M 1.859375 -1.90625 L 2 -2.34375 C 2.15625 -2.828125 2.296875 -3.40625 2.453125 -4.078125 C 2.625 -3.421875 2.78125 -2.84375 2.9375 -2.34375 L 3.078125 -1.90625 Z "/>
</g>
<g id="glyph-0-4">
<path d="M 1.953125 0 L 2.953125 0 L 2.953125 -1.828125 L 4.71875 -4.859375 L 3.5625 -4.859375 L 2.765625 -3.34375 C 2.65625 -3.125 2.546875 -2.921875 2.453125 -2.671875 C 2.359375 -2.921875 2.265625 -3.125 2.140625 -3.34375 L 1.328125 -4.859375 L 0.15625 -4.859375 L 1.953125 -1.828125 Z "/>
</g>
<g id="glyph-0-5">
<path d="M 0.765625 -2.828125 L 1.5 -2.828125 L 1.59375 -4.859375 L 0.65625 -4.859375 Z "/>
</g>
<g id="glyph-0-6">
<path d="M 2.21875 0.078125 C 3.390625 0.078125 4.09375 -0.5 4.09375 -1.375 C 4.09375 -2.203125 3.453125 -2.609375 2.640625 -2.796875 L 2.203125 -2.90625 C 1.796875 -3 1.421875 -3.15625 1.421875 -3.515625 C 1.421875 -3.84375 1.71875 -4.078125 2.21875 -4.078125 C 2.71875 -4.078125 3.03125 -3.859375 3.0625 -3.46875 L 4.03125 -3.46875 C 4.015625 -4.328125 3.3125 -4.921875 2.234375 -4.921875 C 1.171875 -4.921875 0.40625 -4.328125 0.40625 -3.453125 C 0.40625 -2.75 0.90625 -2.328125 1.71875 -2.140625 L 2.25 -2 C 2.78125 -1.875 3.09375 -1.71875 3.09375 -1.390625 C 3.09375 -1.015625 2.734375 -0.765625 2.203125 -0.765625 C 1.671875 -0.765625 1.28125 -1.015625 1.25 -1.5 L 0.28125 -1.5 C 0.3125 -0.46875 1.046875 0.078125 2.21875 0.078125 Z "/>
</g>
<g id="glyph-0-7">
</g>
<g id="glyph-0-8">
<path d="M 0.4375 0 L 1.4375 0 L 1.4375 -1.59375 L 2.3125 -1.59375 C 3.421875 -1.59375 4.0625 -2.25 4.0625 -3.21875 C 4.0625 -4.171875 3.4375 -4.859375 2.328125 -4.859375 L 0.4375 -4.859375 Z M 1.4375 -2.390625 L 1.4375 -4.03125 L 2.140625 -4.03125 C 2.75 -4.03125 3.046875 -3.703125 3.046875 -3.21875 C 3.046875 -2.734375 2.75 -2.390625 2.15625 -2.390625 Z "/>
</g>
<g id="glyph-0-9">
<path d="M 0.4375 0 L 3.53125 0 L 3.53125 -0.828125 L 1.4375 -0.828125 L 1.4375 -4.859375 L 0.4375 -4.859375 Z "/>
</g>
<g id="glyph-0-10">
<path d="M 0.4375 0 L 1.453125 0 L 1.453125 -2.234375 C 1.453125 -2.515625 1.421875 -3.046875 1.390625 -3.625 C 1.6875 -3.015625 1.875 -2.671875 2.140625 -2.234375 L 3.53125 0 L 4.640625 0 L 4.640625 -4.859375 L 3.625 -4.859375 L 3.625 -2.53125 C 3.625 -2.203125 3.65625 -1.6875 3.6875 -1.203125 C 3.484375 -1.71875 3.28125 -2.078125 3.078125 -2.390625 L 1.546875 -4.859375 L 0.4375 -4.859375 Z "/>
</g>
</g>
</defs>
<g fill="rgb(58.039216%, 63.921569%, 72.156863%)" fill-opacity="1">
<use xlink:href="#glyph-0-0" x="30" y="26.458984"/>
<use xlink:href="#glyph-0-1" x="34.238281" y="26.458984"/>
<use xlink:href="#glyph-0-2" x="39.375" y="26.458984"/>
<use xlink:href="#glyph-0-3" x="43.90918" y="26.458984"/>
<use xlink:href="#glyph-0-4" x="48.362305" y="26.458984"/>
<use xlink:href="#glyph-0-5" x="53.235352" y="26.458984"/>
<use xlink:href="#glyph-0-6" x="55.494141" y="26.458984"/>
<use xlink:href="#glyph-0-7" x="59.859375" y="26.458984"/>
<use xlink:href="#glyph-0-8" x="61.438477" y="26.458984"/>
<use xlink:href="#glyph-0-9" x="65.758789" y="26.458984"/>
<use xlink:href="#glyph-0-3" x="69.52832" y="26.458984"/>
<use xlink:href="#glyph-0-10" x="74.505859" y="26.458984"/>
</g>
</svg>
