<?xml version="1.0" encoding="UTF-8"?>
<svg xmlns="http://www.w3.org/2000/svg" xmlns:xlink="http://www.w3.org/1999/xlink" width="854" height="480" viewBox="0 0 854 480">
<defs>
<g>
<g id="glyph-0-0">
<path d="M 2.6875 0.078125 C 4.03125 0.078125 5 -0.65625 5 -1.703125 C 5 -2.453125 4.515625 -2.984375 3.640625 -3.109375 L 3.640625 -3.15625 C 4.3125 -3.28125 4.78125 -3.765625 4.78125 -4.4375 C 4.78125 -5.390625 3.9375 -6.140625 2.703125 -6.140625 C 1.46875 -6.140625 0.53125 -5.421875 0.515625 -4.375 L 1.71875 -4.375 C 1.734375 -4.84375 2.15625 -5.140625 2.6875 -5.140625 C 3.21875 -5.140625 3.578125 -4.828125 3.578125 -4.359375 C 3.578125 -3.875 3.15625 -3.546875 2.5625 -3.546875 L 2.015625 -3.546875 L 2.015625 -2.625 L 2.5625 -2.625 C 3.28125 -2.625 3.703125 -2.28125 3.703125 -1.78125 C 3.703125 -1.28125 3.28125 -0.953125 2.6875 -0.953125 C 2.109375 -0.953125 1.671875 -1.25 1.65625 -1.703125 L 0.40625 -1.703125 C 0.421875 -0.640625 1.359375 0.078125 2.6875 0.078125 Z "/>
</g>
</g>
</defs>
<g fill="rgb(5.882353%, 9.019608%, 16.470588%)" fill-opacity="1">
<use xlink:href="#glyph-0-0" x="30" y="28.072266"/>
</g>
</svg>
