<?xml version="1.0" encoding="UTF-8"?>
<svg xmlns="http://www.w3.org/2000/svg" xmlns:xlink="http://www.w3.org/1999/xlink" width="854" height="480" viewBox="0 0 854 480">
<defs>
<g>
<g id="glyph-0-0">
<path d="M 0.515625 0 L 1.734375 0 L 1.734375 -2.75 C 1.734375 -3.296875 2.0625 -3.59375 2.5 -3.59375 C 2.921875 -3.59375 3.203125 -3.3125 3.203125 -2.859375 L 3.203125 0 L 4.390625 0 L 4.390625 -2.796875 C 4.390625 -3.28125 4.671875 -3.59375 5.140625 -3.59375 C 5.546875 -3.59375 5.859375 -3.34375 5.859375 -2.828125 L 5.859375 0 L 7.078125 0 L 7.078125 -3.0625 C 7.078125 -4.046875 6.46875 -4.609375 5.625 -4.609375 C 5 -4.609375 4.421875 -4.296875 4.171875 -3.59375 C 3.953125 -4.28125 3.578125 -4.609375 3 -4.609375 C 2.453125 -4.609375 1.9375 -4.328125 1.703125 -3.65625 L 1.65625 -4.546875 L 0.515625 -4.546875 Z "/>
</g>
<g id="glyph-0-1">
</g>
<g id="glyph-0-2">
<path d="M 0.796875 -1.546875 L 4.859375 -1.546875 L 4.859375 -2.578125 L 0.796875 -2.578125 Z M 0.796875 -3.5 L 4.859375 -3.5 L 4.859375 -4.515625 L 0.796875 -4.515625 Z "/>
</g>
<g id="glyph-0-3">
<path d="M 2.6875 0.078125 C 4.03125 0.078125 5 -0.65625 5 -1.703125 C 5 -2.453125 4.515625 -2.984375 3.640625 -3.109375 L 3.640625 -3.15625 C 4.3125 -3.28125 4.78125 -3.765625 4.78125 -4.4375 C 4.78125 -5.390625 3.9375 -6.140625 2.703125 -6.140625 C 1.46875 -6.140625 0.53125 -5.421875 0.515625 -4.375 L 1.71875 -4.375 C 1.734375 -4.84375 2.15625 -5.140625 2.6875 -5.140625 C 3.21875 -5.140625 3.578125 -4.828125 3.578125 -4.359375 C 3.578125 -3.875 3.15625 -3.546875 2.5625 -3.546875 L 2.015625 -3.546875 L 2.015625 -2.625 L 2.5625 -2.625 C 3.28125 -2.625 3.703125 -2.28125 3.703125 -1.78125 C 3.703125 -1.28125 3.28125 -0.953125 2.6875 -0.953125 C 2.109375 -0.953125 1.671875 -1.25 1.65625 -1.703125 L 0.40625 -1.703125 C 0.421875 -0.640625 1.359375 0.078125 2.6875 0.078125 Z "/>
</g>
</g>
</defs>
<g fill="rgb(97.254902%, 98.039216%, 98.823529%)" fill-opacity="1">
<use xlink:href="#glyph-0-0" x="30" y="28.072266"/>
<use xlink:href="#glyph-0-1" x="37.604492" y="28.072266"/>
<use xlink:href="#glyph-0-2" x="39.578125" y="28.072266"/>
<use xlink:href="#glyph-0-1" x="45.233398" y="28.072266"/>
<use xlink:href="#glyph-0-3" x="47.207031" y="28.072266"/>
</g>
</svg>
