<?xml version="1.0" encoding="UTF-8"?>
<svg xmlns="http://www.w3.org/2000/svg" xmlns:xlink="http://www.w3.org/1999/xlink" width="854" height="480" viewBox="0 0 854 480">
<defs>
<g>
<g id="glyph-0-0">
<path d="M 2.09375 0 C 3.578125 0 4.421875 -0.921875 4.421875 -2.4375 C 4.421875 -3.9375 3.578125 -4.859375 2.15625 -4.859375 L 0.59375 -4.859375 L 0.59375 0 Z M 1.203125 -0.546875 L 1.203125 -4.3125 L 2.125 -4.3125 C 3.25 -4.3125 3.8125 -3.609375 3.8125 -2.4375 C 3.8125 -1.25 3.25 -0.546875 2.0625 -0.546875 Z "/>
</g>
<g id="glyph-0-1">
<path d="M 0.171875 0 L 0.828125 0 L 1.296875 -1.359375 L 3.296875 -1.359375 L 3.78125 0 L 4.4375 0 L 2.65625 -4.859375 L 1.9375 -4.859375 Z M 1.484375 -1.890625 L 1.828125 -2.875 C 1.9375 -3.171875 2.078125 -3.640625 2.28125 -4.359375 C 2.484375 -3.65625 2.640625 -3.203125 2.75 -2.875 L 3.109375 -1.890625 Z "/>
</g>
<g id="glyph-0-2">
<path d="M 0.421875 1.171875 L 0.859375 1.171875 L 1.375 -0.671875 L 0.703125 -0.671875 Z "/>
</g>
<g id="glyph-0-3">
</g>
<g id="glyph-0-4">
<path d="M 0.3125 -4.3125 L 1.84375 -4.3125 L 1.84375 0 L 2.46875 0 L 2.46875 -4.3125 L 3.984375 -4.3125 L 3.984375 -4.859375 L 0.3125 -4.859375 Z "/>
</g>
<g id="glyph-0-5">
<path d="M 2.546875 0.0625 C 3.796875 0.0625 4.703125 -0.890625 4.703125 -2.421875 C 4.703125 -3.96875 3.796875 -4.921875 2.546875 -4.921875 C 1.3125 -4.921875 0.390625 -3.96875 0.390625 -2.421875 C 0.390625 -0.890625 1.3125 0.0625 2.546875 0.0625 Z M 2.546875 -0.515625 C 1.6875 -0.515625 1 -1.1875 1 -2.421875 C 1 -3.671875 1.6875 -4.34375 2.546875 -4.34375 C 3.421875 -4.34375 4.09375 -3.671875 4.09375 -2.421875 C 4.09375 -1.1875 3.421875 -0.515625 2.546875 -0.515625 Z "/>
</g>
<g id="glyph-0-6">
<path d="M 2.546875 0.0625 C 3.546875 0.0625 4.34375 -0.546875 4.515625 -1.53125 L 3.890625 -1.53125 C 3.75 -0.859375 3.1875 -0.515625 2.546875 -0.515625 C 1.6875 -0.515625 1 -1.1875 1 -2.421875 C 1 -3.671875 1.671875 -4.34375 2.546875 -4.34375 C 3.1875 -4.34375 3.75 -3.984375 3.890625 -3.328125 L 4.515625 -3.328125 C 4.34375 -4.328125 3.53125 -4.921875 2.546875 -4.921875 C 1.3125 -4.921875 0.390625 -3.96875 0.390625 -2.421875 C 0.390625 -0.890625 1.3125 0.0625 2.546875 0.0625 Z "/>
</g>
</g>
</defs>
<g fill="rgb(97.254902%, 98.039216%, 98.823529%)" fill-opacity="1">
<use xlink:href="#glyph-0-0" x="30" y="26.458984"/>
<use xlink:href="#glyph-0-1" x="34.583984" y="26.458984"/>
<use xlink:href="#glyph-0-1" x="39.28125" y="26.458984"/>
<use xlink:href="#glyph-0-2" x="43.880859" y="26.458984"/>
<use xlink:href="#glyph-0-3" x="45.801758" y="26.458984"/>
<use xlink:href="#glyph-0-4" x="47.676758" y="26.458984"/>
<use xlink:href="#glyph-0-5" x="51.782227" y="26.458984"/>
<use xlink:href="#glyph-0-6" x="56.879883" y="26.458984"/>
</g>
</svg>
