<?xml version="1.0" encoding="UTF-8"?>
<svg xmlns="http://www.w3.org/2000/svg" xmlns:xlink="http://www.w3.org/1999/xlink" width="854" height="480" viewBox="0 0 854 480">
<defs>
<g>
<g id="glyph-0-0">
<path d="M 0.796875 -3.5 L 2.265625 -3.5 L 2.265625 -0.453125 L 3.40625 -0.453125 L 3.40625 0 L 0.5625 0 L 0.5625 -0.453125 L 1.6875 -0.453125 L 1.6875 -3.046875 L 0.796875 -3.046875 Z M 1.6875 -4.859375 L 2.265625 -4.859375 L 2.265625 -4.125 L 1.6875 -4.125 Z "/>
</g>
<g id="glyph-0-1">
<path d="M 3.3125 -4.859375 L 3.3125 -4.375 L 2.671875 -4.375 C 2.460938 -4.375 2.316406 -4.332031 2.234375 -4.25 C 2.148438 -4.164062 2.109375 -4.015625 2.109375 -3.796875 L 2.109375 -3.5 L 3.3125 -3.5 L 3.3125 -3.046875 L 2.109375 -3.046875 L 2.109375 0 L 1.546875 0 L 1.546875 -3.046875 L 0.609375 -3.046875 L 0.609375 -3.5 L 1.546875 -3.5 L 1.546875 -3.734375 C 1.546875 -4.117188 1.628906 -4.398438 1.796875 -4.578125 C 1.972656 -4.765625 2.25 -4.859375 2.625 -4.859375 Z "/>
</g>
<g id="glyph-0-2">
</g>
<g id="glyph-0-3">
<path d="M 1.25 -4.140625 L 1.25 -2.390625 L 1.96875 -2.390625 C 2.257812 -2.390625 2.488281 -2.46875 2.65625 -2.625 C 2.820312 -2.78125 2.90625 -2.992188 2.90625 -3.265625 C 2.90625 -3.546875 2.820312 -3.757812 2.65625 -3.90625 C 2.5 -4.0625 2.269531 -4.140625 1.96875 -4.140625 Z M 0.609375 -4.65625 L 1.96875 -4.65625 C 2.488281 -4.65625 2.882812 -4.535156 3.15625 -4.296875 C 3.425781 -4.066406 3.5625 -3.722656 3.5625 -3.265625 C 3.5625 -2.804688 3.425781 -2.457031 3.15625 -2.21875 C 2.894531 -1.988281 2.5 -1.875 1.96875 -1.875 L 1.25 -1.875 L 1.25 0 L 0.609375 0 Z "/>
</g>
<g id="glyph-0-4">
<path d="M 2 -1.265625 C 2 -1.003906 2.046875 -0.804688 2.140625 -0.671875 C 2.234375 -0.546875 2.375 -0.484375 2.5625 -0.484375 L 3.21875 -0.484375 L 3.21875 0 L 2.5 0 C 2.15625 0 1.890625 -0.109375 1.703125 -0.328125 C 1.515625 -0.546875 1.421875 -0.859375 1.421875 -1.265625 L 1.421875 -4.4375 L 0.5 -4.4375 L 0.5 -4.890625 L 2 -4.890625 Z "/>
</g>
<g id="glyph-0-5">
<path d="M 2.1875 -1.75 L 2 -1.75 C 1.664062 -1.75 1.410156 -1.691406 1.234375 -1.578125 C 1.066406 -1.460938 0.984375 -1.289062 0.984375 -1.0625 C 0.984375 -0.84375 1.046875 -0.675781 1.171875 -0.5625 C 1.304688 -0.445312 1.484375 -0.390625 1.703125 -0.390625 C 2.023438 -0.390625 2.273438 -0.5 2.453125 -0.71875 C 2.628906 -0.9375 2.722656 -1.238281 2.734375 -1.625 L 2.734375 -1.75 Z M 3.296875 -2 L 3.296875 0 L 2.734375 0 L 2.734375 -0.515625 C 2.609375 -0.304688 2.453125 -0.148438 2.265625 -0.046875 C 2.078125 0.046875 1.847656 0.09375 1.578125 0.09375 C 1.222656 0.09375 0.941406 -0.00390625 0.734375 -0.203125 C 0.523438 -0.410156 0.421875 -0.679688 0.421875 -1.015625 C 0.421875 -1.398438 0.550781 -1.691406 0.8125 -1.890625 C 1.070312 -2.097656 1.453125 -2.203125 1.953125 -2.203125 L 2.734375 -2.203125 L 2.734375 -2.296875 C 2.722656 -2.578125 2.648438 -2.78125 2.515625 -2.90625 C 2.378906 -3.03125 2.15625 -3.09375 1.84375 -3.09375 C 1.644531 -3.09375 1.445312 -3.0625 1.25 -3 C 1.050781 -2.945312 0.859375 -2.867188 0.671875 -2.765625 L 0.671875 -3.328125 C 0.878906 -3.410156 1.082031 -3.472656 1.28125 -3.515625 C 1.476562 -3.554688 1.664062 -3.578125 1.84375 -3.578125 C 2.132812 -3.578125 2.378906 -3.535156 2.578125 -3.453125 C 2.785156 -3.367188 2.957031 -3.238281 3.09375 -3.0625 C 3.164062 -2.957031 3.21875 -2.828125 3.25 -2.671875 C 3.28125 -2.523438 3.296875 -2.300781 3.296875 -2 Z "/>
</g>
<g id="glyph-0-6">
<path d="M 3.3125 -0.171875 C 3.15625 -0.0859375 2.992188 -0.0234375 2.828125 0.015625 C 2.671875 0.0664062 2.503906 0.09375 2.328125 0.09375 C 1.785156 0.09375 1.363281 -0.0664062 1.0625 -0.390625 C 0.757812 -0.722656 0.609375 -1.175781 0.609375 -1.75 C 0.609375 -2.320312 0.757812 -2.769531 1.0625 -3.09375 C 1.363281 -3.414062 1.785156 -3.578125 2.328125 -3.578125 C 2.503906 -3.578125 2.671875 -3.554688 2.828125 -3.515625 C 2.984375 -3.472656 3.144531 -3.40625 3.3125 -3.3125 L 3.3125 -2.703125 C 3.15625 -2.835938 3 -2.9375 2.84375 -3 C 2.695312 -3.0625 2.523438 -3.09375 2.328125 -3.09375 C 1.972656 -3.09375 1.695312 -2.972656 1.5 -2.734375 C 1.3125 -2.503906 1.21875 -2.175781 1.21875 -1.75 C 1.21875 -1.3125 1.3125 -0.972656 1.5 -0.734375 C 1.695312 -0.503906 1.972656 -0.390625 2.328125 -0.390625 C 2.535156 -0.390625 2.71875 -0.421875 2.875 -0.484375 C 3.03125 -0.546875 3.175781 -0.644531 3.3125 -0.78125 Z "/>
</g>
<g id="glyph-0-7">
<path d="M 3.46875 -1.890625 L 3.46875 -1.609375 L 0.984375 -1.609375 L 0.984375 -1.59375 C 0.984375 -1.207031 1.082031 -0.910156 1.28125 -0.703125 C 1.476562 -0.492188 1.757812 -0.390625 2.125 -0.390625 C 2.300781 -0.390625 2.488281 -0.421875 2.6875 -0.484375 C 2.894531 -0.546875 3.109375 -0.632812 3.328125 -0.75 L 3.328125 -0.171875 C 3.117188 -0.0859375 2.910156 -0.0234375 2.703125 0.015625 C 2.503906 0.0664062 2.304688 0.09375 2.109375 0.09375 C 1.566406 0.09375 1.144531 -0.0664062 0.84375 -0.390625 C 0.539062 -0.722656 0.390625 -1.175781 0.390625 -1.75 C 0.390625 -2.300781 0.535156 -2.742188 0.828125 -3.078125 C 1.128906 -3.410156 1.53125 -3.578125 2.03125 -3.578125 C 2.476562 -3.578125 2.828125 -3.425781 3.078125 -3.125 C 3.335938 -2.820312 3.46875 -2.410156 3.46875 -1.890625 Z M 2.890625 -2.0625 C 2.890625 -2.394531 2.8125 -2.648438 2.65625 -2.828125 C 2.507812 -3.003906 2.289062 -3.09375 2 -3.09375 C 1.726562 -3.09375 1.503906 -3 1.328125 -2.8125 C 1.148438 -2.632812 1.039062 -2.382812 1 -2.0625 Z "/>
</g>
<g id="glyph-0-8">
<path d="M 2.765625 -4.84375 C 2.484375 -4.375 2.273438 -3.898438 2.140625 -3.421875 C 2.003906 -2.953125 1.9375 -2.476562 1.9375 -2 C 1.9375 -1.53125 2.003906 -1.054688 2.140625 -0.578125 C 2.273438 -0.109375 2.484375 0.363281 2.765625 0.84375 L 2.265625 0.84375 C 1.953125 0.34375 1.71875 -0.140625 1.5625 -0.609375 C 1.40625 -1.078125 1.328125 -1.539062 1.328125 -2 C 1.328125 -2.46875 1.40625 -2.9375 1.5625 -3.40625 C 1.71875 -3.875 1.953125 -4.351562 2.265625 -4.84375 Z "/>
</g>
<g id="glyph-0-9">
<path d="M 0.734375 -4.859375 L 1.328125 -4.859375 L 1.328125 -2.046875 L 2.84375 -3.5 L 3.53125 -3.5 L 2.15625 -2.171875 L 3.75 0 L 3.046875 0 L 1.75 -1.796875 L 1.328125 -1.40625 L 1.328125 0 L 0.734375 0 Z "/>
</g>
<g id="glyph-0-10">
<path d="M 1.5625 -0.953125 L 2.359375 -0.953125 L 2.359375 -0.296875 L 1.734375 0.890625 L 1.25 0.890625 L 1.5625 -0.296875 Z "/>
</g>
<g id="glyph-0-11">
<path d="M 1.078125 -4.84375 L 1.578125 -4.84375 C 1.898438 -4.351562 2.132812 -3.875 2.28125 -3.40625 C 2.4375 -2.9375 2.515625 -2.46875 2.515625 -2 C 2.515625 -1.53125 2.4375 -1.0625 2.28125 -0.59375 C 2.132812 -0.125 1.898438 0.351562 1.578125 0.84375 L 1.078125 0.84375 C 1.359375 0.363281 1.566406 -0.109375 1.703125 -0.578125 C 1.835938 -1.054688 1.90625 -1.53125 1.90625 -2 C 1.90625 -2.476562 1.835938 -2.953125 1.703125 -3.421875 C 1.566406 -3.898438 1.359375 -4.375 1.078125 -4.84375 Z "/>
</g>
<g id="glyph-0-12">
<path d="M 1.921875 -4.484375 L 1.921875 -3.5 L 3.21875 -3.5 L 3.21875 -3.046875 L 1.921875 -3.046875 L 1.921875 -1.15625 C 1.921875 -0.894531 1.96875 -0.710938 2.0625 -0.609375 C 2.15625 -0.503906 2.328125 -0.453125 2.578125 -0.453125 L 3.21875 -0.453125 L 3.21875 0 L 2.515625 0 C 2.085938 0 1.785156 -0.0820312 1.609375 -0.25 C 1.429688 -0.425781 1.34375 -0.726562 1.34375 -1.15625 L 1.34375 -3.046875 L 0.40625 -3.046875 L 0.40625 -3.5 L 1.34375 -3.5 L 1.34375 -4.484375 Z "/>
</g>
<g id="glyph-0-13">
<path d="M 3.28125 -2.171875 L 3.28125 0 L 2.703125 0 L 2.703125 -2.171875 C 2.703125 -2.484375 2.644531 -2.710938 2.53125 -2.859375 C 2.425781 -3.003906 2.253906 -3.078125 2.015625 -3.078125 C 1.742188 -3.078125 1.535156 -2.984375 1.390625 -2.796875 C 1.253906 -2.609375 1.1875 -2.332031 1.1875 -1.96875 L 1.1875 0 L 0.609375 0 L 0.609375 -4.859375 L 1.1875 -4.859375 L 1.1875 -2.96875 C 1.28125 -3.164062 1.414062 -3.316406 1.59375 -3.421875 C 1.769531 -3.523438 1.976562 -3.578125 2.21875 -3.578125 C 2.570312 -3.578125 2.835938 -3.457031 3.015625 -3.21875 C 3.191406 -2.988281 3.28125 -2.640625 3.28125 -2.171875 Z "/>
</g>
<g id="glyph-0-14">
<path d="M 3.28125 -2.171875 L 3.28125 0 L 2.703125 0 L 2.703125 -2.171875 C 2.703125 -2.484375 2.644531 -2.710938 2.53125 -2.859375 C 2.425781 -3.003906 2.253906 -3.078125 2.015625 -3.078125 C 1.742188 -3.078125 1.535156 -2.984375 1.390625 -2.796875 C 1.253906 -2.609375 1.1875 -2.332031 1.1875 -1.96875 L 1.1875 0 L 0.609375 0 L 0.609375 -3.5 L 1.1875 -3.5 L 1.1875 -2.96875 C 1.28125 -3.164062 1.414062 -3.316406 1.59375 -3.421875 C 1.769531 -3.523438 1.976562 -3.578125 2.21875 -3.578125 C 2.570312 -3.578125 2.835938 -3.457031 3.015625 -3.21875 C 3.191406 -2.988281 3.28125 -2.640625 3.28125 -2.171875 Z "/>
</g>
</g>
</defs>
<g fill="rgb(97.254902%, 98.039216%, 98.823529%)" fill-opacity="1">
<use xlink:href="#glyph-0-0" x="30" y="25.930664"/>
<use xlink:href="#glyph-0-1" x="33.84668" y="25.930664"/>
<use xlink:href="#glyph-0-2" x="37.693359" y="25.930664"/>
<use xlink:href="#glyph-0-3" x="41.540039" y="25.930664"/>
<use xlink:href="#glyph-0-4" x="45.386719" y="25.930664"/>
<use xlink:href="#glyph-0-5" x="49.233398" y="25.930664"/>
<use xlink:href="#glyph-0-6" x="53.080078" y="25.930664"/>
<use xlink:href="#glyph-0-7" x="56.926758" y="25.930664"/>
<use xlink:href="#glyph-0-8" x="60.773438" y="25.930664"/>
<use xlink:href="#glyph-0-9" x="64.620117" y="25.930664"/>
<use xlink:href="#glyph-0-10" x="68.466797" y="25.930664"/>
<use xlink:href="#glyph-0-2" x="72.313477" y="25.930664"/>
<use xlink:href="#glyph-0-0" x="76.160156" y="25.930664"/>
<use xlink:href="#glyph-0-11" x="80.006836" y="25.930664"/>
<use xlink:href="#glyph-0-2" x="83.853516" y="25.930664"/>
<use xlink:href="#glyph-0-12" x="87.700195" y="25.930664"/>
<use xlink:href="#glyph-0-13" x="91.546875" y="25.930664"/>
<use xlink:href="#glyph-0-7" x="95.393555" y="25.930664"/>
<use xlink:href="#glyph-0-14" x="99.240234" y="25.930664"/>
</g>
</svg>
