<?xml version="1.0" encoding="UTF-8"?>
<svg xmlns="http://www.w3.org/2000/svg" xmlns:xlink="http://www.w3.org/1999/xlink" width="854" height="480" viewBox="0 0 854 480">
<defs>
<g>
<g id="glyph-0-0">
<path d="M 0.15625 0 L 0.671875 0 L 1.078125 -0.609375 C 1.1875 -0.796875 1.28125 -0.96875 1.359375 -1.125 C 1.453125 -0.96875 1.546875 -0.796875 1.65625 -0.609375 L 2.0625 0 L 2.578125 0 L 1.609375 -1.375 L 2.53125 -2.734375 L 2.03125 -2.734375 L 1.671875 -2.203125 C 1.546875 -2 1.46875 -1.828125 1.375 -1.671875 C 1.28125 -1.828125 1.1875 -2 1.0625 -2.203125 L 0.734375 -2.734375 L 0.21875 -2.734375 L 1.125 -1.40625 Z "/>
</g>
<g id="glyph-0-1">
<path d="M 0.375 0 L 2.6875 0 L 2.6875 -0.40625 L 1.015625 -0.40625 L 1.015625 -0.4375 L 1.8125 -1.28125 C 2.453125 -1.96875 2.625 -2.28125 2.625 -2.671875 C 2.625 -3.234375 2.171875 -3.6875 1.515625 -3.6875 C 0.875 -3.6875 0.390625 -3.25 0.390625 -2.609375 L 0.828125 -2.609375 C 0.828125 -3.015625 1.09375 -3.28125 1.515625 -3.28125 C 1.890625 -3.28125 2.1875 -3.046875 2.1875 -2.671875 C 2.1875 -2.328125 1.984375 -2.078125 1.578125 -1.640625 L 0.375 -0.328125 Z "/>
</g>
</g>
</defs>
<g fill="rgb(58.039216%, 63.921569%, 72.156863%)" fill-opacity="1">
<use xlink:href="#glyph-0-0" x="30" y="24.84375"/>
<use xlink:href="#glyph-0-1" x="32.729492" y="24.84375"/>
</g>
</svg>
